<svg xmlns="http://www.w3.org/2000/svg" viewBox="0 0 512 512" style="enable-background:new 0 0 512 512" xml:space="preserve"><path style="fill:#808285" d="M105.315 185.224c-10.003 0-18.113-8.11-18.113-18.113v-44.883c0-10.003 8.11-18.113 18.113-18.113s18.113 8.11 18.113 18.113v44.883c0 10.003-8.11 18.113-18.113 18.113zM241.226 185.224c-10.003 0-18.113-8.11-18.113-18.113v-44.883c0-10.003 8.11-18.113 18.113-18.113s18.113 8.11 18.113 18.113v44.883c0 10.003-8.11 18.113-18.113 18.113z"/><path style="fill:#58595b" d="M241.226 104.114v81.11c10.003 0 18.113-8.11 18.113-18.113v-44.883c0-10.004-8.11-18.114-18.113-18.114z"/><path style="fill:#d1d3d4" d="M412.513 302.674h-394.4C8.11 302.674 0 294.564 0 284.56V167.11c0-10.003 8.11-18.113 18.113-18.113h332.771a18.116 18.116 0 0 1 16.04 9.697l61.628 117.45a18.112 18.112 0 0 1-.539 17.787 18.11 18.11 0 0 1-15.5 8.743z"/><path style="fill:#bcbec0" d="m428.552 276.145-61.628-117.45a18.114 18.114 0 0 0-16.04-9.697h-109.66v153.676h171.288a18.113 18.113 0 0 0 16.04-26.529z"/><path style="fill:#a7a9ac" d="M241.226 302.571c10.003 0 18.113-8.11 18.113-18.113v-135.46h-36.226v135.46c-.001 10.003 8.108 18.113 18.113 18.113zM105.315 302.571c10.003 0 18.113-8.11 18.113-18.113v-135.46H87.202v135.46c0 10.003 8.11 18.113 18.113 18.113z"/><path style="fill:#48aee2" d="M493.887 420.114H388.822c-10.003 0-18.113-8.11-18.113-18.113 0-38.643-58.496-38.655-58.496 0 0 10.003-8.11 18.113-18.113 18.113h-95.5c-10.003 0-18.113-8.11-18.113-18.113 0-38.646-58.509-38.645-58.509 0 0 10.003-8.11 18.113-18.113 18.113h-85.75C8.11 420.114 0 412.004 0 402V284.56c0-10.003 8.11-18.113 18.113-18.113h475.774c10.003 0 18.113 8.11 18.113 18.113V402c0 10.004-8.11 18.114-18.113 18.114z"/><path style="fill:#f59d00" d="M94.952 420.12H18.113C8.11 420.12 0 412.01 0 402.006v-76.839h76.839c10.003 0 18.113 8.11 18.113 18.113v76.84z"/><path style="fill:#808285" d="M151.231 467.481c-36.107 0-65.482-29.375-65.482-65.48 0-36.1 29.375-65.47 65.482-65.47s65.48 29.369 65.48 65.47c.001 36.106-29.373 65.48-65.48 65.48z"/><path style="fill:#f59d00" d="M239.905 140.341H106.636c-26.418 0-47.911-21.492-47.911-47.911s21.492-47.911 47.911-47.911h133.269c26.418 0 47.911 21.492 47.911 47.911-.001 26.419-21.494 47.911-47.911 47.911z"/><path style="fill:#e87e04" d="M155.158 44.52h36.226v95.819h-36.226z"/><path style="fill:#939598" d="M241.226 148.997V302.57c10.003 0 18.113-8.11 18.113-18.113v-135.46h-18.113z"/><path style="fill:#39a3db" d="M493.887 266.447H241.226v153.666H294.1c10.003 0 18.113-8.11 18.113-18.113 0-38.637 58.496-38.655 58.496 0 0 10.003 8.11 18.113 18.113 18.113h105.065c10.003 0 18.113-8.11 18.113-18.113V284.56c0-10.003-8.11-18.113-18.113-18.113z"/><path style="fill:#e87e04" d="M512 361.399h-76.839c-10.003 0-18.113-8.11-18.113-18.113v-76.839h76.839c10.003 0 18.113 8.11 18.113 18.113v76.839zM287.815 92.431c0-25.976-20.782-47.173-46.59-47.877v95.754c25.808-.705 46.59-21.903 46.59-47.877z"/><path style="fill:#6d6e71" d="M341.467 467.481c-36.106 0-65.482-29.375-65.482-65.48 0-36.1 29.375-65.47 65.482-65.47 36.1 0 65.468 29.369 65.468 65.47 0 36.106-29.369 65.48-65.468 65.48z"/><path style="fill:#3797d3" d="M267.672 361.394h-23.345c-10.003 0-18.113-8.11-18.113-18.113s8.11-18.113 18.113-18.113h23.346c10.003 0 18.113 8.11 18.113 18.113-.001 10.003-8.109 18.113-18.114 18.113z"/><path style="fill:#4881c2" d="M267.672 325.168h-23.345c-1.06 0-2.091.11-3.102.284v35.658c1.01.175 2.042.284 3.102.284h23.346c10.003 0 18.113-8.11 18.113-18.113-.001-10.003-8.109-18.113-18.114-18.113z"/></svg>