<svg xmlns="http://www.w3.org/2000/svg" viewBox="0 0 512 512" style="enable-background:new 0 0 512 512" xml:space="preserve"><path style="fill:#4c4e55" d="M375.467 482.133h-51.2a8.533 8.533 0 0 1 0-17.066h51.2c23.526 0 42.667-19.14 42.667-42.667v-17.067a8.533 8.533 0 0 1 17.066 0V422.4c0 32.937-26.796 59.733-59.733 59.733zM426.667 243.2a8.533 8.533 0 0 1-8.533-8.533V192c0-89.401-72.733-162.133-162.133-162.133S93.867 102.599 93.867 192v42.667a8.533 8.533 0 0 1-17.066 0V192c0-98.812 80.388-179.2 179.2-179.2S435.2 93.188 435.2 192v42.667a8.534 8.534 0 0 1-8.533 8.533z"/><path style="fill:#74dbc9" d="M76.8 243.2C34.452 243.2 0 277.652 0 320s34.452 76.8 76.8 76.8a8.533 8.533 0 0 0 8.533-8.533V251.733A8.533 8.533 0 0 0 76.8 243.2z"/><path style="fill:#6ac8b7" d="M8.533 302.933c0-8.924 1.546-17.49 4.357-25.465C4.755 289.654 0 304.281 0 320c0 42.348 34.452 76.8 76.8 76.8a8.533 8.533 0 0 0 8.533-8.533v-8.533c-42.347-.001-76.8-34.453-76.8-76.801z"/><path style="fill:#74dbc9" d="M435.2 243.2a8.533 8.533 0 0 0-8.533 8.533v136.533a8.533 8.533 0 0 0 8.533 8.533c42.348 0 76.8-34.452 76.8-76.8S477.548 243.2 435.2 243.2z"/><circle style="fill:#aff0e8" cx="29.867" cy="290.133" r="12.8"/><circle style="fill:#aff0e8" cx="482.133" cy="290.133" r="12.8"/><path style="fill:#88898e" d="M93.867 226.133H76.8c-14.115 0-25.6 11.485-25.6 25.6v136.533c0 14.115 11.485 25.6 25.6 25.6h17.067c14.115 0 25.6-11.485 25.6-25.6V251.733c0-14.115-11.485-25.6-25.6-25.6z"/><path style="fill:#74757b" d="M68.267 388.267V251.733c0-14.115 11.485-25.6 25.6-25.6H76.8c-14.115 0-25.6 11.485-25.6 25.6v136.533c0 14.115 11.485 25.6 25.6 25.6h17.067c-14.116.001-25.6-11.484-25.6-25.599z"/><path style="fill:#88898e" d="M435.2 226.133h-17.067c-14.115 0-25.6 11.485-25.6 25.6v136.533c0 14.115 11.485 25.6 25.6 25.6H435.2c14.115 0 25.6-11.485 25.6-25.6V251.733c0-14.115-11.485-25.6-25.6-25.6z"/><path style="fill:#74757b" d="M409.6 388.267V251.733c0-14.115 11.485-25.6 25.6-25.6h-17.067c-14.115 0-25.6 11.485-25.6 25.6v136.533c0 14.115 11.485 25.6 25.6 25.6H435.2c-14.115.001-25.6-11.484-25.6-25.599z"/><path style="fill:#e5563c" d="M315.733 448H230.4c-14.115 0-25.6 11.485-25.6 25.6s11.485 25.6 25.6 25.6h85.333c9.41 0 17.067-7.657 17.067-17.067v-17.067c0-9.409-7.657-17.066-17.067-17.066z"/><path style="fill:#cf442b" d="M238.933 473.6c0-14.115 11.485-25.6 25.6-25.6H230.4c-14.115 0-25.6 11.485-25.6 25.6s11.485 25.6 25.6 25.6h34.133c-14.115 0-25.6-11.485-25.6-25.6z"/><path style="fill:#e5563c" d="M230.4 260.267h-59.733a8.533 8.533 0 0 1-8.533-8.533v-51.2a8.533 8.533 0 0 1 8.533-8.533h51.2v-34.133h-51.2a8.533 8.533 0 0 1 0-17.066H230.4a8.533 8.533 0 0 1 8.533 8.533v51.2a8.533 8.533 0 0 1-8.533 8.533h-51.2V243.2h51.2a8.534 8.534 0 0 1 0 17.067zM349.867 192H332.8v-42.667a8.533 8.533 0 0 0-17.066 0V192h-42.667v-42.667a8.533 8.533 0 0 0-17.066 0v51.2a8.533 8.533 0 0 0 8.533 8.533h51.2v42.667a8.533 8.533 0 0 0 17.066 0v-42.667h17.067a8.533 8.533 0 0 0 0-17.066z"/><path style="fill:#fdd042" d="M256 81.067a8.533 8.533 0 0 1-8.533-8.533V55.467a8.533 8.533 0 0 1 17.066 0v17.067A8.533 8.533 0 0 1 256 81.067zM165.49 118.557a8.501 8.501 0 0 1-6.033-2.499l-12.068-12.067a8.533 8.533 0 1 1 12.066-12.068l12.068 12.067a8.533 8.533 0 0 1-6.033 14.567zM128 209.067h-17.067a8.533 8.533 0 0 1 0-17.066H128a8.533 8.533 0 0 1 0 17.066zM153.422 311.645a8.533 8.533 0 0 1-6.033-14.567l12.068-12.067a8.533 8.533 0 1 1 12.066 12.068l-12.068 12.067a8.509 8.509 0 0 1-6.033 2.499zM256 354.133a8.533 8.533 0 0 1-8.533-8.533v-17.067a8.533 8.533 0 0 1 17.066 0V345.6a8.533 8.533 0 0 1-8.533 8.533zM358.578 311.645a8.501 8.501 0 0 1-6.033-2.499l-12.068-12.067a8.533 8.533 0 1 1 12.066-12.068l12.068 12.067a8.533 8.533 0 0 1-6.033 14.567zM401.067 209.067H384a8.533 8.533 0 0 1 0-17.066h17.067a8.533 8.533 0 0 1 0 17.066zM346.51 118.557a8.533 8.533 0 0 1-6.033-14.567l12.068-12.067a8.533 8.533 0 1 1 12.066 12.068l-12.068 12.067a8.508 8.508 0 0 1-6.033 2.499z"/></svg>