<svg xmlns="http://www.w3.org/2000/svg" viewBox="0 0 512.001 512.001" style="enable-background:new 0 0 512.001 512.001" xml:space="preserve"><path style="fill:#f4b2b0" d="M108.266 133.56c0 39.236 31.807 71.044 71.044 71.044h9.302c39.236 0 71.044-31.807 71.044-71.044h-151.39z"/><path style="fill:#b3404a" d="M259.657 7.817c-7.79 0-14.105 6.316-14.105 14.105v97.534h-47.486V14.105C198.066 6.316 191.752 0 183.962 0s-14.105 6.316-14.105 14.105v105.351h-47.486V21.921c0-7.789-6.315-14.105-14.105-14.105s-14.105 6.316-14.105 14.105V133.56c0 43.754 33.178 79.892 75.696 84.611v64.347h-25.624c-7.79 0-14.105 6.316-14.105 14.105v161.542c0 29.683 24.15 53.833 53.833 53.833s53.833-24.15 53.833-53.833V397.25c0-7.789-6.315-14.105-14.105-14.105s-14.105 6.316-14.105 14.105v60.915c0 14.13-11.494 25.624-25.624 25.624-14.13 0-25.624-11.494-25.624-25.624V310.729h51.247v39.07c0 7.789 6.315 14.105 14.105 14.105s14.105-6.316 14.105-14.105v-53.175c0-7.789-6.315-14.105-14.105-14.105h-25.624v-64.347c42.517-4.721 75.696-40.857 75.696-84.611V21.923c.002-7.79-6.313-14.106-14.103-14.106zm-16.011 140.347a56.272 56.272 0 0 1-.59 2.071c-.09.295-.189.584-.285.877a54.487 54.487 0 0 1-.542 1.597c-.114.32-.234.636-.354.955-.189.499-.385.996-.588 1.489-.13.316-.26.628-.394.941a56.78 56.78 0 0 1-.683 1.506c-.131.282-.26.566-.395.845a56.182 56.182 0 0 1-.946 1.845c-.078.145-.148.293-.227.439a58.347 58.347 0 0 1-1.258 2.186c-.15.248-.309.491-.463.736-.298.477-.598.951-.91 1.418-.19.285-.386.564-.581.848a57.938 57.938 0 0 1-1.524 2.101c-.312.409-.63.812-.952 1.212-.213.265-.425.53-.642.791-.364.436-.738.862-1.116 1.286-.186.21-.368.426-.559.632a58.5 58.5 0 0 1-1.718 1.803c-.165.165-.337.323-.505.488-.439.429-.88.853-1.331 1.268-.244.224-.494.441-.742.661a51.714 51.714 0 0 1-1.994 1.691c-.395.32-.794.633-1.197.942-.276.212-.554.425-.835.63-.43.317-.867.625-1.308.929-.26.182-.516.365-.78.542-.591.396-1.19.78-1.797 1.152-.117.073-.231.151-.35.223-.718.436-1.447.852-2.183 1.257-.258.142-.522.275-.783.413-.496.262-.996.52-1.501.769-.303.15-.611.292-.918.437a53.116 53.116 0 0 1-3.906 1.654c-.305.116-.608.234-.915.346-.587.21-1.179.409-1.774.602-.23.075-.457.155-.688.227-.824.255-1.656.492-2.495.709-.207.054-.419.099-.626.15-.642.158-1.286.312-1.937.447-.31.066-.623.123-.935.183-.559.107-1.12.209-1.684.302a57.62 57.62 0 0 1-2.692.365c-.334.038-.67.078-1.006.109-.605.056-1.214.1-1.825.14-.292.018-.584.042-.877.056a58.48 58.48 0 0 1-2.722.069h-9.302c-.913 0-1.82-.027-2.722-.069-.293-.014-.584-.038-.877-.056a57.558 57.558 0 0 1-1.825-.14c-.336-.031-.67-.071-1.006-.109a58 58 0 0 1-2.692-.365 58.33 58.33 0 0 1-1.688-.303c-.31-.059-.622-.116-.931-.181-.653-.138-1.3-.291-1.945-.45-.205-.051-.413-.094-.618-.147a56.319 56.319 0 0 1-2.499-.712c-.226-.071-.449-.148-.673-.221a57.1 57.1 0 0 1-1.791-.608c-.303-.11-.604-.227-.904-.341a57.246 57.246 0 0 1-1.522-.601 64.78 64.78 0 0 1-.941-.401 53.04 53.04 0 0 1-1.456-.659c-.303-.142-.607-.284-.907-.432a54.508 54.508 0 0 1-1.522-.78c-.254-.135-.511-.265-.762-.402a56.595 56.595 0 0 1-2.193-1.262c-.102-.062-.2-.13-.302-.193a54.42 54.42 0 0 1-1.843-1.183c-.257-.172-.508-.351-.76-.528-.447-.31-.89-.622-1.327-.945a61.943 61.943 0 0 1-2.838-2.233c-.403-.337-.8-.684-1.193-1.032-.243-.216-.489-.43-.728-.649a59.47 59.47 0 0 1-1.361-1.298c-.158-.154-.32-.303-.475-.458a56.657 56.657 0 0 1-1.726-1.811c-.182-.199-.355-.403-.533-.605a64.393 64.393 0 0 1-1.141-1.317c-.213-.255-.419-.513-.626-.772a55.132 55.132 0 0 1-1.59-2.065 59.498 59.498 0 0 1-.904-1.269 43.53 43.53 0 0 1-1.492-2.27c-.15-.24-.306-.477-.451-.719a54.559 54.559 0 0 1-1.261-2.192c-.076-.138-.144-.281-.219-.42a55.3 55.3 0 0 1-.955-1.862c-.134-.275-.26-.554-.389-.831a58.05 58.05 0 0 1-.69-1.523c-.133-.307-.261-.618-.389-.928a53.72 53.72 0 0 1-.592-1.501c-.118-.315-.237-.629-.351-.946-.19-.532-.37-1.068-.544-1.607-.094-.289-.192-.577-.282-.869a59.357 59.357 0 0 1-.591-2.073c-.039-.147-.085-.292-.123-.441l-.013-.056h119.64a.772.772 0 0 1-.013.056c-.045.147-.09.292-.129.44z"/><path style="fill:#f4b2b0" d="M325.923 245.035h76.165v-90.984a165.812 165.812 0 0 0-67.076-133.21l-9.089-6.736v230.93z"/><path style="fill:#b3404a" d="M403.734 363.904c7.79 0 14.105-6.316 14.105-14.105v-53.175c0-7.789-6.315-14.105-14.105-14.105H378.11v-23.38h23.978c7.79 0 14.105-6.316 14.105-14.105v-90.982c0-56.729-27.208-110.763-72.782-144.543l-9.089-6.736a14.104 14.104 0 0 0-22.502 11.333v230.93c0 7.789 6.315 14.105 14.105 14.105h23.978v23.38h-25.624c-7.79 0-14.105 6.316-14.105 14.105v161.542c0 29.683 24.15 53.833 53.833 53.833s53.833-24.15 53.833-53.833v-60.915c0-7.789-6.315-14.105-14.105-14.105s-14.105 6.316-14.105 14.105v60.915c0 14.13-11.495 25.624-25.624 25.624s-25.624-11.494-25.624-25.624V310.729h51.247v39.07c0 7.789 6.315 14.105 14.105 14.105zM340.027 43.385c30.294 28.472 47.956 68.694 47.956 110.668v76.878h-47.956V43.385z"/></svg>